<?xml version="1.0" encoding="utf-8"?>
<!-- Generator: Adobe Illustrator 21.1.0, SVG Export Plug-In . SVG Version: 6.00 Build 0)  -->
<svg version="1.1" id="Isolation_Mode" xmlns="http://www.w3.org/2000/svg" xmlns:xlink="http://www.w3.org/1999/xlink" x="0px"
	 y="0px" viewBox="0 0 167.7 59.6" style="enable-background:new 0 0 167.7 59.6;" xml:space="preserve">
<style type="text/css">
	.st0{fill:#FFFFFF;}
	.st1{font-family:'Helvetica-Bold';}
	.st2{font-size:2.1103px;}
	.st3{font-family:'Akrobat-Regular';}
	.st4{font-size:4.3005px;}
	.st5{fill:#C12033;}
</style>
<g>
	<text transform="matrix(1.0821 0 0 1 30.4844 33.1826)" class="st0 st1 st2">since 1980</text>
	<g>
		<g>
			<g>
				<g>
					<path class="st0" d="M15.9,4.2L23,6.1v0.7l-7.3-2c-0.8-0.2-1.5,0-1.9,0.5C13.9,4.4,14.8,3.9,15.9,4.2z"/>
					<path class="st0" d="M15.9,7.6L23,9.5v0.7l-7.3-2c-0.8-0.2-1.5,0-1.9,0.5C13.9,7.8,14.8,7.3,15.9,7.6z"/>
					<g>
						<polygon class="st0" points="21.5,3.9 23,4.3 23,5.1 21.5,4.7 						"/>
						<path class="st0" d="M15.9,2.4l4.9,1.3v0.7l-5-1.4c-0.8-0.2-1.5,0-1.9,0.5C13.9,2.6,14.8,2.1,15.9,2.4z"/>
					</g>
					<g>
						<polygon class="st0" points="18.8,6.7 23,7.8 23,8.5 18.8,7.4 						"/>
						<path class="st0" d="M15.9,5.9L18,6.5v0.7l-2.3-0.6c-0.8-0.2-1.5,0-1.9,0.5C13.9,6.1,14.8,5.6,15.9,5.9z"/>
					</g>
					<g>
						<polygon class="st0" points="21.5,10.8 23,11.2 23,11.9 21.5,11.5 						"/>
						<path class="st0" d="M15.9,9.3l4.9,1.3v0.7l-5-1.4c-0.8-0.2-1.5,0-1.9,0.5C13.9,9.5,14.8,9,15.9,9.3z"/>
					</g>
					<path class="st0" d="M15.9,9.3l0.2,0.1v0.7L15.7,10c-0.8-0.2-1.5,0-1.9,0.5C13.9,9.5,14.8,9,15.9,9.3z"/>
					<path class="st0" d="M15.9,2.4l0.2,0.1l0,0.7l-0.4-0.1c-0.8-0.2-1.5,0-1.9,0.5C13.9,2.6,14.8,2.1,15.9,2.4z"/>
					<path class="st0" d="M15.9,7.6l0.2,0.1v0.7l-0.4-0.1c-0.8-0.2-1.5,0-1.9,0.5C13.9,7.8,14.8,7.3,15.9,7.6z"/>
					<path class="st0" d="M15.9,5.9L16.1,6v0.7l-0.4-0.1c-0.8-0.2-1.5,0-1.9,0.5C13.9,6.1,14.8,5.6,15.9,5.9z"/>
					<path class="st0" d="M15.9,4.2l0.2,0.1V5l-0.4-0.1c-0.8-0.2-1.5,0-1.9,0.5C13.9,4.4,14.8,3.9,15.9,4.2z"/>
				</g>
			</g>
		</g>
		<g>
			<g>
				<g>
					<path class="st0" d="M23,13.8l-7.3-2c-0.8-0.2-1.5,0-1.9,0.5c0.1-0.9,1-1.4,2.1-1.1l7.1,1.9V13.8z"/>
					<path class="st0" d="M15.9,16.5l7.1,1.9l0,0.7l-7.3-2c-0.8-0.2-1.5,0-1.9,0.5C13.9,16.7,14.8,16.2,15.9,16.5z"/>
					<path class="st0" d="M15.9,19.9l7.1,1.9v0.7l-7.3-2c-0.8-0.2-1.5,0-1.9,0.5C13.9,20.1,14.8,19.6,15.9,19.9z"/>
					<g>
						<polygon class="st0" points="21.5,16.3 23,16.7 23,17.4 21.5,17 						"/>
						<path class="st0" d="M15.9,14.7l4.9,1.3v0.7l-5-1.4c-0.8-0.2-1.5,0-1.9,0.5C13.9,14.9,14.8,14.4,15.9,14.7z"/>
					</g>
					<g>
						<polygon class="st0" points="18.8,13.7 23,14.9 23,15.6 18.8,14.5 						"/>
						<path class="st0" d="M15.9,13l2.1,0.6v0.7l-2.3-0.6c-0.8-0.2-1.5,0-1.9,0.5C13.9,13.2,14.8,12.7,15.9,13z"/>
					</g>
					<g>
						<polygon class="st0" points="18.8,19 23,20.2 23,20.9 18.8,19.7 						"/>
						<path class="st0" d="M15.9,18.2l2.1,0.6v0.7l-2.3-0.6c-0.8-0.2-1.5,0-1.9,0.5C13.9,18.4,14.8,17.9,15.9,18.2z"/>
					</g>
					<g>
						<polygon class="st0" points="21.5,23.2 23,23.6 23,24.3 21.5,23.9 						"/>
						<path class="st0" d="M15.9,21.6l4.9,1.3v0.7l-5-1.4c-0.8-0.2-1.5,0-1.9,0.5C13.9,21.8,14.8,21.3,15.9,21.6z"/>
					</g>
					<path class="st0" d="M15.9,11.2l0.2,0.1v0.7l-0.4-0.1c-0.8-0.2-1.5,0-1.9,0.5C13.9,11.4,14.8,10.9,15.9,11.2z"/>
					<path class="st0" d="M15.9,21.6l0.2,0.1l0,0.7l-0.4-0.1c-0.8-0.2-1.5,0-1.9,0.5C13.9,21.8,14.8,21.3,15.9,21.6z"/>
					<path class="st0" d="M15.9,14.7l0.2,0.1v0.7l-0.4-0.1c-0.8-0.2-1.5,0-1.9,0.5C13.9,14.9,14.8,14.4,15.9,14.7z"/>
					<path class="st0" d="M15.9,13l0.2,0.1v0.7l-0.4-0.1c-0.8-0.2-1.5,0-1.9,0.5C13.9,13.2,14.8,12.7,15.9,13z"/>
					<path class="st0" d="M15.9,19.9l0.2,0.1v0.7l-0.4-0.1c-0.8-0.2-1.5,0-1.9,0.5C13.9,20.1,14.8,19.6,15.9,19.9z"/>
					<path class="st0" d="M15.9,18.2l0.2,0.1V19l-0.4-0.1c-0.8-0.2-1.5,0-1.9,0.5C13.9,18.4,14.8,17.9,15.9,18.2z"/>
					<path class="st0" d="M15.9,16.5l0.2,0.1v0.7l-0.4-0.1c-0.8-0.2-1.5,0-1.9,0.5C13.9,16.7,14.8,16.2,15.9,16.5z"/>
				</g>
			</g>
		</g>
		<g>
			<g>
				<g>
					<path class="st0" d="M23,26.1l-7.3-2c-0.8-0.2-1.5,0-1.9,0.5c0.1-0.9,1-1.4,2.1-1.1l7.1,1.9V26.1z"/>
					<path class="st0" d="M15.9,28.8l7.1,1.9v0.7l-7.3-2c-0.8-0.2-1.5,0-1.9,0.5C13.9,29,14.8,28.5,15.9,28.8z"/>
					<g>
						<polygon class="st0" points="21.5,28.5 23,28.9 23,29.7 21.5,29.3 						"/>
						<path class="st0" d="M15.9,27l4.9,1.3V29l-5-1.4c-0.8-0.2-1.5,0-1.9,0.5C13.9,27.2,14.8,26.7,15.9,27z"/>
					</g>
					<g>
						<polygon class="st0" points="18.8,26 23,27.2 23,27.9 18.8,26.7 						"/>
						<path class="st0" d="M15.9,25.2l2.1,0.6v0.7l-2.3-0.6c-0.8-0.2-1.5,0-1.9,0.5C13.9,25.4,14.8,24.9,15.9,25.2z"/>
					</g>
					<g>
						<polygon class="st0" points="18.8,31.3 23,32.4 23,33.1 18.8,32 						"/>
						<path class="st0" d="M15.9,30.5l2.1,0.6v0.7l-2.3-0.6c-0.8-0.2-1.5,0-1.9,0.5C13.9,30.7,14.8,30.2,15.9,30.5z"/>
					</g>
					<path class="st0" d="M15.9,23.4l0.2,0.1v0.7l-0.4-0.1c-0.8-0.2-1.5,0-1.9,0.5C13.9,23.6,14.8,23.1,15.9,23.4z"/>
					<path class="st0" d="M15.9,27l0.2,0.1l0,0.7l-0.4-0.1c-0.8-0.2-1.5,0-1.9,0.5C13.9,27.2,14.8,26.7,15.9,27z"/>
					<path class="st0" d="M15.9,25.2l0.2,0.1V26l-0.4-0.1c-0.8-0.2-1.5,0-1.9,0.5C13.9,25.4,14.8,24.9,15.9,25.2z"/>
					<path class="st0" d="M15.9,30.5l0.2,0.1v0.7l-0.4-0.1c-0.8-0.2-1.5,0-1.9,0.5C13.9,30.7,14.8,30.2,15.9,30.5z"/>
					<path class="st0" d="M15.9,28.8l0.2,0.1v0.7l-0.4-0.1c-0.8-0.2-1.5,0-1.9,0.5C13.9,29,14.8,28.5,15.9,28.8z"/>
				</g>
			</g>
		</g>
	</g>
	<g>
		<polygon class="st0" points="23.6,16 23.6,16.7 30.3,19.4 30.3,18.7 		"/>
		<polygon class="st0" points="23.6,14.3 23.6,15 30.3,17.7 30.3,17 		"/>
		<polygon class="st0" points="23.6,12.5 23.6,13.2 30.3,15.9 30.3,15.2 		"/>
	</g>
	<g>
		<g>
			<path class="st0" d="M37.7,9.7l-7.1-1.1l0,0.7l7.3,1.2c0.8,0.1,1.5,0.6,1.9,1.3C39.7,10.8,38.8,9.9,37.7,9.7z"/>
			<path class="st0" d="M37.7,2.9l-7.1-1.1v0.7l7.3,1.2c0.8,0.1,1.5,0.6,1.9,1.3C39.7,4,38.8,3.1,37.7,2.9z"/>
			<path class="st0" d="M37.7,6.3l-7.1-1.1v0.7L37.9,7c0.8,0.1,1.5,0.6,1.9,1.3C39.7,7.4,38.8,6.5,37.7,6.3z"/>
			<g>
				<polygon class="st0" points="34,0.5 30.7,0 30.7,0.7 34,1.2 				"/>
				<path class="st0" d="M37.7,1.1l-2.9-0.5v0.7l3.1,0.5c0.8,0.1,1.5,0.6,1.9,1.3C39.7,2.2,38.8,1.3,37.7,1.1z"/>
			</g>
			<g>
				<polygon class="st0" points="31.7,3.6 30.7,3.5 30.7,4.2 31.7,4.4 				"/>
				<path class="st0" d="M37.7,4.6l-5.3-0.8l0,0.7l5.5,0.9c0.8,0.1,1.5,0.6,1.9,1.3C39.7,5.7,38.8,4.8,37.7,4.6z"/>
			</g>
			<g>
				<polygon class="st0" points="35.2,7.6 30.7,6.9 30.7,7.6 35.2,8.3 				"/>
				<path class="st0" d="M37.7,8L36,7.7l0,0.7l1.9,0.3c0.8,0.1,1.5,0.6,1.9,1.3C39.7,9.1,38.8,8.2,37.7,8z"/>
			</g>
			<g>
				<polygon class="st0" points="31.7,10.4 30.7,10.3 30.7,11 31.7,11.1 				"/>
				<path class="st0" d="M37.7,11.4l-5.3-0.8v0.7l5.5,0.9c0.8,0.1,1.5,0.6,1.9,1.3C39.7,12.4,38.8,11.6,37.7,11.4z"/>
			</g>
			<path class="st0" d="M37.7,11.4l-0.2,0v0.7l0.4,0.1c0.8,0.1,1.5,0.6,1.9,1.3C39.7,12.4,38.8,11.6,37.7,11.4z"/>
			<path class="st0" d="M37.7,8l-0.2,0v0.7l0.4,0.1c0.8,0.1,1.5,0.6,1.9,1.3C39.7,9.1,38.8,8.2,37.7,8z"/>
			<path class="st0" d="M37.7,9.7l-0.2,0v0.7l0.4,0.1c0.8,0.1,1.5,0.6,1.9,1.3C39.7,10.8,38.8,9.9,37.7,9.7z"/>
			<path class="st0" d="M37.7,1.1l-0.2,0v0.7l0.4,0.1c0.8,0.1,1.5,0.6,1.9,1.3C39.7,2.2,38.8,1.3,37.7,1.1z"/>
			<path class="st0" d="M37.7,6.3l-0.2,0l0,0.7L37.9,7c0.8,0.1,1.5,0.6,1.9,1.3C39.7,7.4,38.8,6.5,37.7,6.3z"/>
			<path class="st0" d="M37.7,4.6l-0.2,0v0.7l0.4,0.1c0.8,0.1,1.5,0.6,1.9,1.3C39.7,5.7,38.8,4.8,37.7,4.6z"/>
			<path class="st0" d="M37.7,2.9l-0.2,0l0,0.7l0.4,0.1c0.8,0.1,1.5,0.6,1.9,1.3C39.7,4,38.8,3.1,37.7,2.9z"/>
		</g>
		<g>
			<g>
				<path class="st0" d="M37.7,28.6l-4.9-0.8v0.7l5,0.8c0.8,0.1,1.5,0.6,1.9,1.3C39.7,29.6,38.8,28.8,37.7,28.6z"/>
				<polygon class="st0" points="32.1,27.7 30.7,27.5 30.7,28.2 32.1,28.4 				"/>
			</g>
			<path class="st0" d="M37.7,28.6l-0.2,0l0,0.7l0.4,0.1c0.8,0.1,1.5,0.6,1.9,1.3C39.7,29.6,38.8,28.8,37.7,28.6z"/>
		</g>
		<g>
			<path class="st0" d="M37.7,25.1l-7.1-1.1v0.7l7.3,1.2c0.8,0.1,1.5,0.6,1.9,1.3C39.7,26.1,38.8,25.2,37.7,25.1z"/>
			<path class="st0" d="M37.7,14.7l-7.1-1.1l0,0.7l7.3,1.2c0.8,0.1,1.5,0.6,1.9,1.3C39.7,15.8,38.8,14.9,37.7,14.7z"/>
			<path class="st0" d="M37.7,18.3l-7.1-1.1l0,0.7l7.3,1.2c0.8,0.1,1.5,0.6,1.9,1.3C39.7,19.3,38.8,18.5,37.7,18.3z"/>
			<g>
				<polygon class="st0" points="34,15.9 30.7,15.4 30.7,16.1 34,16.6 				"/>
				<polygon class="st0" points="34,15.9 30.7,15.4 30.7,16.1 34,16.6 				"/>
				<path class="st0" d="M37.7,16.5L34.8,16v0.7l3.1,0.5c0.8,0.1,1.5,0.6,1.9,1.3C39.7,17.6,38.8,16.7,37.7,16.5z"/>
			</g>
			<g>
				<polygon class="st0" points="31.7,19 30.7,18.9 30.7,19.6 31.7,19.7 				"/>
				<path class="st0" d="M37.7,20l-5.3-0.8v0.7l5.5,0.9c0.8,0.1,1.5,0.6,1.9,1.3C39.7,21,38.8,20.2,37.7,20z"/>
			</g>
			<g>
				<polygon class="st0" points="31.7,25.8 30.7,25.6 30.7,26.4 31.7,26.5 				"/>
				<path class="st0" d="M37.7,26.8l-5.3-0.8v0.7l5.5,0.9c0.8,0.1,1.5,0.6,1.9,1.3C39.7,27.8,38.8,26.9,37.7,26.8z"/>
			</g>
			<g>
				<path class="st0" d="M37.7,12.9l-4.9-0.8l0,0.7l5,0.8c0.8,0.1,1.5,0.6,1.9,1.3C39.7,14,38.8,13.1,37.7,12.9z"/>
				<polygon class="st0" points="32.1,12 30.7,11.8 30.7,12.5 32.1,12.8 				"/>
			</g>
			<g>
				<path class="st0" d="M37.7,21.6l-4.9-0.8l0,0.7l5,0.8c0.8,0.1,1.5,0.6,1.9,1.3C39.7,22.7,38.8,21.8,37.7,21.6z"/>
				<polygon class="st0" points="32.1,20.7 30.7,20.5 30.7,21.2 32.1,21.4 				"/>
			</g>
			<path class="st0" d="M37.7,26.8l-0.2,0v0.7l0.4,0.1c0.8,0.1,1.5,0.6,1.9,1.3C39.7,27.8,38.8,26.9,37.7,26.8z"/>
			<path class="st0" d="M37.7,12.9l-0.2,0v0.7l0.4,0.1c0.8,0.1,1.5,0.6,1.9,1.3C39.7,14,38.8,13.1,37.7,12.9z"/>
			<path class="st0" d="M37.7,25.1l-0.2,0v0.7l0.4,0.1c0.8,0.1,1.5,0.6,1.9,1.3C39.7,26.1,38.8,25.2,37.7,25.1z"/>
			<path class="st0" d="M37.7,16.5l-0.2,0v0.7l0.4,0.1c0.8,0.1,1.5,0.6,1.9,1.3C39.7,17.6,38.8,16.7,37.7,16.5z"/>
			<path class="st0" d="M37.7,14.7l-0.2,0v0.7l0.4,0.1c0.8,0.1,1.5,0.6,1.9,1.3C39.7,15.8,38.8,14.9,37.7,14.7z"/>
			<path class="st0" d="M37.7,20l-0.2,0v0.7l0.4,0.1c0.8,0.1,1.5,0.6,1.9,1.3C39.7,21,38.8,20.2,37.7,20z"/>
			<path class="st0" d="M37.7,18.3l-0.2,0V19l0.4,0.1c0.8,0.1,1.5,0.6,1.9,1.3C39.7,19.3,38.8,18.5,37.7,18.3z"/>
		</g>
		<path class="st0" d="M37.7,23.4l-7.1-1.1l0,0.7l7.3,1.2c0.8,0.1,1.5,0.6,1.9,1.3C39.7,24.4,38.8,23.6,37.7,23.4z"/>
	</g>
	<path class="st0" d="M10.4,38.8l3.1,0l0,18l-3.1,0l0-7.8l-6.8,0l0,7.8l-3.1,0l0-18l3.1,0l0,7.8l6.8,0L10.4,38.8z"/>
	<path class="st0" d="M16,38.8l9.8,0l0,1.8l-6.6,0l0,6.4l6.2,0v1.5l-6.2,0l0,6.5l6.6,0l0,1.8l-9.7,0L16,38.8z"/>
	<path class="st0" d="M27.3,38.8l10.4,0v1.8l-3.5,0l0,16.2l-3.1,0l0-16.2l-3.9,0L27.3,38.8z"/>
	<path class="st0" d="M39,43.8c0-2.2,0.6-3.6,1.7-4.3s2.8-1,5.2-1c2.3,0,3.9,0.4,4.8,1.1c0.6,0.5,1,1.1,1.1,1.7
		c0.2,0.7,0.2,1.5,0.2,2.4l0,7.6c0,1.6-0.2,2.7-0.6,3.3c-0.4,0.6-0.8,1.1-1.3,1.4c-1,0.6-2.5,0.8-4.6,0.8c-3.1,0-5-0.6-5.8-1.9
		c-0.5-0.8-0.8-2-0.8-3.6L39,43.8z M48.9,44.3c0-1.4-0.2-2.4-0.6-3c-0.4-0.6-1.3-0.9-2.6-0.9c-1.3,0-2.2,0.3-2.7,0.9s-0.8,1.6-0.8,3
		l0,6.6c0,1.7,0.2,2.7,0.5,3.2c0.4,0.5,0.7,0.8,1.2,0.9c0.4,0.1,1,0.2,1.7,0.2c0.7,0,1.3-0.1,1.7-0.2c0.4-0.1,0.8-0.4,1.2-0.9
		c0.4-0.5,0.5-1.5,0.5-3.2L48.9,44.3z"/>
	<g>
		<text transform="matrix(1.0821 0 0 1 59.9873 52.6152)" class="st0 st3 st4">Heliopolis Engineering &amp; Trading HETO</text>
		<polygon class="st5" points="60,20.6 63.9,20.6 63.9,21.5 60,21.5 		"/>
		<polygon class="st0" points="60.4,27.2 61.3,27.2 61.2,29.7 64.3,29.7 64.3,27.2 65.1,27.2 65.1,33.3 64.3,33.3 64.3,30.4 
			61.2,30.4 61.2,33.3 60.4,33.3 		"/>
		<path class="st0" d="M66.4,27.4c0-0.3,0.3-0.5,0.6-0.5c0.3,0,0.6,0.2,0.6,0.5c0,0.3-0.3,0.5-0.6,0.5
			C66.6,27.8,66.4,27.6,66.4,27.4 M66.5,28.8l0.8,0l0,4.5l-0.8,0L66.5,28.8z"/>
		<path class="st0" d="M68.9,29.4l-0.7,0l0-0.6l0.8,0l0.1-1.3l0.7,0l0,1.3l1.3,0l0,0.6l-1.3,0l0,2.5c0,0.6,0.2,0.9,0.7,0.9
			c0.2,0,0.4-0.1,0.6-0.1l0.2,0.6c-0.3,0.1-0.6,0.2-0.9,0.2c-1,0-1.4-0.6-1.4-1.5L68.9,29.4z"/>
		<path class="st0" d="M73.6,28.7c0.5,0,0.9,0.2,1.4,0.6h0l0.1-0.4l0.7,0l0,4.5l-0.7,0L75,32.8h0c-0.4,0.3-0.9,0.6-1.5,0.6
			c-1.2,0-2-0.9-2-2.4C71.5,29.6,72.5,28.7,73.6,28.7 M73.7,32.8c0.5,0,0.8-0.2,1.2-0.6l0-2.4c-0.4-0.3-0.8-0.5-1.2-0.5
			c-0.8,0-1.4,0.7-1.4,1.7C72.3,32.1,72.8,32.8,73.7,32.8"/>
		<path class="st0" d="M79.2,28.7c0.6,0,1.1,0.3,1.4,0.5l-0.4,0.5c-0.3-0.2-0.6-0.4-1-0.4c-0.9,0-1.5,0.7-1.5,1.7
			c0,1,0.6,1.7,1.5,1.7c0.5,0,0.9-0.2,1.1-0.5l0.4,0.5c-0.4,0.4-1,0.6-1.6,0.6c-1.3,0-2.3-0.9-2.3-2.4
			C76.8,29.5,77.9,28.7,79.2,28.7"/>
		<path class="st0" d="M81.5,26.7l0.8,0l0,1.8l0,0.9c0.5-0.4,1-0.7,1.6-0.7c1,0,1.5,0.6,1.5,1.8l0,2.9l-0.8,0l0-2.8
			c0-0.8-0.3-1.2-0.9-1.2c-0.5,0-0.8,0.2-1.3,0.7l0,3.3l-0.8,0L81.5,26.7z"/>
		<path class="st0" d="M86.5,27.4c0-0.3,0.3-0.5,0.6-0.5c0.3,0,0.6,0.2,0.6,0.5c0,0.3-0.3,0.5-0.6,0.5
			C86.8,27.9,86.5,27.7,86.5,27.4 M86.7,28.8l0.8,0l0,4.5l-0.8,0L86.7,28.8z"/>
		<path class="st0" d="M93.8,27.2c0.8,0,1.4,0.4,1.8,0.8l-0.5,0.5c-0.3-0.3-0.8-0.6-1.3-0.6c-1.3,0-2.1,0.9-2.1,2.5
			c0,1.5,0.8,2.5,2,2.5c0.6,0,1.1-0.2,1.5-0.7l0.5,0.5c-0.5,0.6-1.2,0.9-2,0.9c-1.7,0-2.9-1.2-2.9-3.2
			C90.8,28.3,92.1,27.1,93.8,27.2"/>
		<path class="st0" d="M98.4,28.7c1.2,0,2.3,0.9,2.2,2.4c0,1.5-1.1,2.4-2.3,2.3c-1.2,0-2.3-0.9-2.2-2.4
			C96.2,29.6,97.3,28.7,98.4,28.7 M98.4,32.8c0.8,0,1.4-0.7,1.4-1.7c0-1-0.6-1.7-1.4-1.7c-0.8,0-1.4,0.7-1.4,1.7
			C97,32.1,97.6,32.8,98.4,32.8"/>
		<path class="st0" d="M103.7,28.8c1.2,0,2.3,0.9,2.2,2.4c0,1.5-1.1,2.4-2.3,2.3c-1.2,0-2.3-0.9-2.2-2.4
			C101.4,29.6,102.5,28.7,103.7,28.8 M103.7,32.8c0.8,0,1.4-0.7,1.4-1.7c0-1-0.6-1.7-1.4-1.7c-0.8,0-1.4,0.7-1.4,1.7
			C102.3,32.1,102.9,32.8,103.7,32.8"/>
		<path class="st0" d="M107,26.8l0.8,0l0,5.7c0,0.2,0.1,0.3,0.2,0.3c0,0,0.1,0,0.2,0l0.1,0.6c-0.1,0-0.3,0.1-0.5,0.1
			c-0.6,0-0.9-0.4-0.9-1L107,26.8z"/>
		<path class="st0" d="M109.1,27.5c0-0.3,0.3-0.5,0.6-0.5c0.3,0,0.6,0.2,0.6,0.5c0,0.3-0.3,0.5-0.6,0.5
			C109.3,28,109.1,27.7,109.1,27.5 M109.2,28.9l0.8,0l0,4.5l-0.8,0L109.2,28.9z"/>
		<path class="st0" d="M111.4,28.9l0.7,0l0.1,0.6h0c0.5-0.4,1-0.8,1.6-0.8c1,0,1.5,0.6,1.5,1.8l0,2.9l-0.8,0l0-2.8
			c0-0.8-0.3-1.2-0.9-1.2c-0.5,0-0.8,0.2-1.3,0.7l0,3.3l-0.8,0L111.4,28.9z"/>
		<path class="st0" d="M118.4,34.8c0.9,0,1.3-0.5,1.3-1.2l0-0.9c-0.4,0.3-0.9,0.6-1.4,0.6c-1.2,0-2-0.9-2-2.3c0-1.4,1-2.3,2.1-2.3
			c0.6,0,1,0.2,1.4,0.5h0l0.1-0.4l0.7,0l0,4.7c0,1.1-0.8,1.8-2.2,1.8c-0.6,0-1.2-0.2-1.7-0.5l0.3-0.5
			C117.4,34.7,117.9,34.8,118.4,34.8 M119.7,32.1l0-2.2c-0.4-0.3-0.8-0.5-1.2-0.5c-0.8,0-1.4,0.7-1.4,1.6c0,1,0.5,1.7,1.3,1.7
			C118.9,32.7,119.3,32.5,119.7,32.1"/>
		<path class="st0" d="M129.1,33.5c-0.5-0.1-1-0.4-1.5-0.7c-0.5,0.4-1.1,0.7-1.9,0.7c-1.2,0-2-0.7-2-1.7c0-0.8,0.6-1.3,1.3-1.7
			c-0.3-0.5-0.4-1-0.4-1.4c0-0.8,0.6-1.4,1.5-1.4c0.8,0,1.3,0.5,1.3,1.2c0,0.8-0.8,1.3-1.5,1.8c0.4,0.6,1,1.2,1.7,1.7
			c0.4-0.5,0.7-1.1,0.9-1.8l0.8,0c-0.3,0.8-0.6,1.5-1.2,2.2c0.5,0.3,0.9,0.5,1.2,0.6L129.1,33.5z M125.8,32.9c0.5,0,0.9-0.2,1.3-0.5
			c-0.6-0.5-1.3-1.2-1.7-1.8c-0.5,0.3-0.8,0.7-0.8,1.2C124.5,32.5,125.1,32.9,125.8,32.9 M125.6,29.7c0.6-0.4,1.1-0.7,1.1-1.3
			c0-0.4-0.2-0.7-0.6-0.7c-0.5,0-0.8,0.4-0.8,0.9C125.3,29,125.4,29.4,125.6,29.7"/>
		<path class="st0" d="M60,40.1c0-2,1.2-3.1,3-3.1c1.8,0,3,1.1,3,3.1c0,2-1.2,3.2-3,3.2C61.2,43.3,59.9,42.1,60,40.1 M64.4,40.1
			c0-1.2-0.6-1.9-1.4-1.9c-0.9,0-1.5,0.7-1.5,1.9c0,1.2,0.6,2,1.4,2C63.8,42.1,64.4,41.3,64.4,40.1"/>
		<path class="st0" d="M72.9,37.7c-0.2-0.1-0.4-0.1-0.5-0.1c-0.4,0-0.6,0.2-0.6,0.7l0,0.3l0.9,0l0,1.1l-0.9,0l0,3.5l-1.5,0l0-3.5
			l-1.7,0l0,3.5l-1.5,0l0-3.5l-0.7,0l0-1l0.7,0l0-0.2c0-0.9,0.5-1.7,1.9-1.7c0.4,0,0.8,0.1,1,0.2l-0.3,1c-0.2-0.1-0.3-0.1-0.6-0.1
			c-0.3,0-0.6,0.2-0.6,0.6l0,0.2l1.7,0l0-0.2c0-1,0.5-1.8,1.8-1.8c0.4,0,0.8,0.1,1,0.2L72.9,37.7z"/>
		<path class="st0" d="M73.5,37.2c0-0.4,0.4-0.7,0.9-0.7c0.5,0,0.9,0.3,0.9,0.7c0,0.4-0.4,0.7-0.9,0.7
			C73.9,37.9,73.5,37.6,73.5,37.2 M73.7,38.6l1.5,0l0,4.6l-1.5,0L73.7,38.6z"/>
		<path class="st0" d="M78.5,38.5c0.6,0,1.1,0.2,1.5,0.5l-0.7,0.8c-0.2-0.2-0.5-0.3-0.7-0.3c-0.7,0-1.2,0.5-1.2,1.3
			c0,0.8,0.5,1.3,1.1,1.3c0.4,0,0.7-0.2,0.9-0.3l0.6,0.9c-0.5,0.4-1.1,0.6-1.7,0.6c-1.4,0-2.5-0.9-2.4-2.4
			C75.9,39.4,77.1,38.5,78.5,38.5"/>
		<path class="st0" d="M80.6,37.2c0-0.4,0.4-0.7,0.9-0.7c0.5,0,0.9,0.3,0.9,0.7c0,0.4-0.4,0.7-0.9,0.7
			C80.9,37.9,80.6,37.6,80.6,37.2 M80.7,38.6l1.5,0l0,4.6l-1.5,0L80.7,38.6z"/>
		<path class="st0" d="M85.1,38.5c0.5,0,0.9,0.2,1.3,0.6l0,0l0.1-0.5l1.2,0l0,4.6l-1.2,0l-0.1-0.5l0,0c-0.4,0.3-0.8,0.6-1.3,0.6
			c-1.2,0-2-0.9-2-2.4C83,39.4,84.1,38.5,85.1,38.5 M85.4,42.2c0.3,0,0.6-0.1,0.8-0.4l0-1.9c-0.3-0.2-0.6-0.3-0.8-0.3
			c-0.5,0-0.9,0.4-0.9,1.3C84.5,41.8,84.9,42.2,85.4,42.2"/>
		<path class="st0" d="M88.9,36.7l1.5,0l0,5.1c0,0.3,0.1,0.4,0.3,0.4c0.1,0,0.1,0,0.2,0l0.2,1c-0.2,0.1-0.4,0.1-0.7,0.1
			c-1,0-1.4-0.6-1.3-1.5L88.9,36.7z"/>
		<path class="st0" d="M93.9,37.2l1.8,0c2,0,3.3,0.9,3.3,3c0,2.1-1.3,3-3.2,3l-1.9,0L93.9,37.2z M95.7,42.1c1.1,0,1.9-0.5,1.9-1.9
			c0-1.4-0.7-1.9-1.9-1.9l-0.3,0l0,3.8L95.7,42.1z"/>
		<path class="st0" d="M99.9,37.3c0-0.4,0.4-0.7,0.9-0.7c0.5,0,0.9,0.3,0.8,0.7c0,0.4-0.4,0.7-0.9,0.7C100.3,38,99.9,37.7,99.9,37.3
			 M100,38.6l1.5,0l0,4.6l-1.5,0L100,38.6z"/>
		<path class="st0" d="M102.8,41.9c0.5,0.3,0.9,0.5,1.3,0.5c0.4,0,0.6-0.1,0.6-0.4c0-0.3-0.5-0.4-1-0.6c-0.6-0.2-1.3-0.6-1.3-1.4
			c0-0.9,0.8-1.4,1.9-1.4c0.8,0,1.3,0.3,1.8,0.6l-0.7,0.8c-0.4-0.2-0.7-0.4-1.1-0.4c-0.4,0-0.6,0.1-0.6,0.4c0,0.3,0.5,0.4,1,0.6
			c0.6,0.2,1.3,0.5,1.3,1.4c0,0.8-0.7,1.5-2,1.5c-0.7,0-1.4-0.3-1.9-0.6L102.8,41.9z"/>
		<path class="st0" d="M107.2,39.7l-0.7,0l0-1l0.8-0.1l0.2-1.2l1.2,0l0,1.2l1.2,0l0,1.1l-1.2,0l0,1.8c0,0.5,0.2,0.7,0.6,0.7
			c0.2,0,0.3,0,0.5-0.1l0.2,1c-0.3,0.1-0.6,0.2-1.1,0.2c-1.2,0-1.7-0.7-1.7-1.8L107.2,39.7z"/>
		<path class="st0" d="M110.7,38.7l1.2,0l0.1,0.8l0,0c0.4-0.6,0.9-0.9,1.4-0.9c0.3,0,0.5,0,0.6,0.1l-0.2,1.2c-0.2,0-0.3-0.1-0.5-0.1
			c-0.4,0-0.8,0.2-1.1,0.8l0,2.7l-1.5,0L110.7,38.7z"/>
		<path class="st0" d="M114.5,37.3c0-0.4,0.4-0.7,0.9-0.7c0.5,0,0.9,0.3,0.8,0.7c0,0.4-0.4,0.7-0.9,0.7
			C114.8,38,114.5,37.7,114.5,37.3 M114.6,38.7l1.5,0l0,4.6l-1.5,0L114.6,38.7z"/>
		<path class="st0" d="M117.2,36.8l1.5,0l0,1.6l0,0.7c0.4-0.3,0.9-0.5,1.3-0.5c1.2,0,2,0.9,1.9,2.3c0,1.6-1,2.5-2.1,2.5
			c-0.4,0-0.9-0.2-1.3-0.6h0l-0.1,0.5l-1.2,0L117.2,36.8z M119.4,42.3c0.5,0,0.9-0.4,0.9-1.4c0-0.8-0.3-1.2-0.9-1.2
			c-0.3,0-0.6,0.1-0.9,0.4l0,1.9C118.9,42.2,119.2,42.3,119.4,42.3"/>
		<path class="st0" d="M122.7,38.7l1.5,0l0,2.7c0,0.7,0.2,0.9,0.6,0.9c0.4,0,0.6-0.1,0.9-0.5l0-3l1.5,0l0,4.6l-1.2,0l-0.1-0.6l0,0
			c-0.4,0.5-0.9,0.7-1.6,0.7c-1.1,0-1.5-0.7-1.5-1.9L122.7,38.7z"/>
		<path class="st0" d="M128.5,39.8l-0.7,0l0-1l0.8-0.1l0.2-1.2l1.2,0l0,1.2l1.2,0l0,1.1l-1.2,0l0,1.8c0,0.5,0.2,0.7,0.6,0.7
			c0.2,0,0.3,0,0.5-0.1l0.2,1c-0.3,0.1-0.6,0.2-1.1,0.2c-1.2,0-1.7-0.7-1.7-1.8L128.5,39.8z"/>
		<path class="st0" d="M134,38.6c1.3,0,2.4,0.9,2.4,2.4c0,1.5-1.2,2.4-2.4,2.4c-1.3,0-2.4-0.9-2.4-2.4
			C131.6,39.5,132.8,38.6,134,38.6 M134,42.3c0.6,0,0.9-0.5,0.9-1.3c0-0.8-0.3-1.3-0.9-1.3c-0.6,0-0.9,0.5-0.9,1.3
			C133.1,41.8,133.4,42.3,134,42.3"/>
		<path class="st0" d="M137.3,38.7l1.2,0l0.1,0.8h0c0.4-0.6,0.9-0.9,1.4-0.9c0.3,0,0.5,0,0.6,0.1l-0.2,1.2c-0.2,0-0.3-0.1-0.5-0.1
			c-0.4,0-0.8,0.2-1.1,0.8l0,2.7l-1.5,0L137.3,38.7z"/>
		<path class="st0" d="M132.3,27.3h0.8v2.6h3.1v-2.6h0.8v6.1h-0.8v-2.9h-3.1v2.9h-0.8V27.3z M140.5,28.8c1.2,0,2,0.8,2,2.1
			c0,0.2,0,0.3,0,0.4h-3.3c0.1,1,0.7,1.6,1.6,1.6c0.5,0,0.9-0.1,1.2-0.4l0.3,0.5c-0.4,0.3-0.9,0.5-1.6,0.5c-1.3,0-2.3-0.9-2.3-2.4
			C138.3,29.7,139.4,28.8,140.5,28.8 M141.7,30.8c0-0.9-0.4-1.4-1.2-1.4c-0.7,0-1.3,0.5-1.4,1.4H141.7z M146.2,30.5
			c0-0.6-0.2-1.1-1-1.1c-0.6,0-1.1,0.2-1.5,0.5l-0.3-0.5c0.5-0.3,1.1-0.6,1.9-0.6c1.2,0,1.7,0.7,1.7,1.9v2.8h-0.7l-0.1-0.5h0
			c-0.5,0.4-1,0.7-1.6,0.7c-0.8,0-1.4-0.5-1.4-1.3C143.2,31.2,144.1,30.8,146.2,30.5 M144.8,32.9c0.5,0,0.9-0.2,1.3-0.6V31
			c-1.6,0.2-2.2,0.6-2.2,1.1C144,32.7,144.3,32.9,144.8,32.9 M148.6,29.5h-0.7v-0.6l0.8,0l0.1-1.3h0.7v1.3h1.3v0.6h-1.3V32
			c0,0.6,0.2,0.9,0.8,0.9c0.2,0,0.4-0.1,0.6-0.1l0.2,0.6c-0.3,0.1-0.6,0.2-0.9,0.2c-1,0-1.4-0.6-1.4-1.5V29.5z M151.6,27.5
			c0-0.3,0.3-0.5,0.6-0.5c0.3,0,0.6,0.2,0.6,0.5c0,0.3-0.3,0.5-0.6,0.5C151.9,28,151.6,27.7,151.6,27.5 M151.8,28.9h0.8v4.5h-0.8
			V28.9z M154.2,28.9h0.7l0.1,0.7h0c0.5-0.4,1-0.8,1.6-0.8c1,0,1.5,0.6,1.5,1.8v2.9h-0.8v-2.8c0-0.8-0.3-1.2-0.9-1.2
			c-0.5,0-0.8,0.2-1.3,0.7v3.3h-0.8V28.9z M161.3,34.8c0.9,0,1.3-0.5,1.3-1.2l0-0.9c-0.4,0.3-0.9,0.6-1.4,0.6c-1.2,0-2-0.9-2-2.3
			c0-1.4,1-2.3,2.1-2.3c0.6,0,1,0.2,1.4,0.5h0l0.1-0.4h0.7v4.7c0,1.1-0.8,1.8-2.2,1.8c-0.6,0-1.2-0.2-1.8-0.5l0.3-0.5
			C160.4,34.7,160.9,34.8,161.3,34.8 M162.7,32.1v-2.2c-0.4-0.3-0.8-0.5-1.2-0.5c-0.8,0-1.4,0.7-1.4,1.7c0,1,0.5,1.7,1.3,1.7
			C161.9,32.7,162.3,32.5,162.7,32.1"/>
		<g>
			<text transform="matrix(1.0821 0 0 1 59.9873 56.9287)" class="st0 st3 st4">ELECTROMECHANICAL CONTRACTOR</text>
		</g>
	</g>
</g>
</svg>
