<?xml version="1.0" encoding="utf-8"?>
<!-- Generator: Adobe Illustrator 21.1.0, SVG Export Plug-In . SVG Version: 6.00 Build 0)  -->
<svg version="1.1" id="Isolation_Mode" xmlns="http://www.w3.org/2000/svg" xmlns:xlink="http://www.w3.org/1999/xlink" x="0px"
	 y="0px" viewBox="0 0 39 50.3" style="enable-background:new 0 0 39 50.3;" xml:space="preserve">
<style type="text/css">
	.st0{fill:#FFFFFF;}
</style>
<g>
	<g>
		<g id="XMLID_16_">
			<g>
				<g>
					<g>
						<g>
							<path class="st0" d="M5.6,8.2l9,2.7l0,1L5.4,9.1C4.4,8.8,3.4,9,3,9.7C3.1,8.4,4.3,7.7,5.6,8.2z"/>
							<path class="st0" d="M5.6,12.8l9,2.7v1l-9.2-2.7c-1.1-0.3-2,0-2.5,0.6C3.1,13.1,4.3,12.4,5.6,12.8z"/>
							<g>
								<polygon class="st0" points="12.8,7.8 14.6,8.4 14.6,9.3 12.8,8.8 								"/>
								<path class="st0" d="M5.6,5.7l6.2,1.8v1L5.4,6.6c-1.1-0.3-2,0-2.5,0.6C3.1,6,4.3,5.3,5.6,5.7z"/>
							</g>
							<g>
								<polygon class="st0" points="9.3,11.6 14.6,13.2 14.6,14.1 9.3,12.5 								"/>
								<path class="st0" d="M5.6,10.5l2.7,0.8v1l-2.9-0.9c-1.1-0.3-2,0-2.5,0.6C3.1,10.8,4.3,10.1,5.6,10.5z"/>
							</g>
							<g>
								<polygon class="st0" points="12.8,17.3 14.6,17.8 14.6,18.8 12.8,18.3 								"/>
								<path class="st0" d="M5.6,15.2l6.2,1.8l0,1l-6.4-1.9c-1.1-0.3-2,0-2.5,0.6C3.1,15.4,4.3,14.8,5.6,15.2z"/>
							</g>
							<path class="st0" d="M5.6,15.2l0.3,0.1l0,1l-0.5-0.2c-1.1-0.3-2,0-2.5,0.6C3.1,15.4,4.3,14.8,5.6,15.2z"/>
							<path class="st0" d="M5.6,5.7l0.3,0.1l0,1L5.4,6.6c-1.1-0.3-2,0-2.5,0.6C3.1,6,4.3,5.3,5.6,5.7z"/>
							<path class="st0" d="M5.6,12.8l0.3,0.1v1l-0.5-0.2c-1.1-0.3-2,0-2.5,0.6C3.1,13.1,4.3,12.4,5.6,12.8z"/>
							<path class="st0" d="M5.6,10.5l0.3,0.1l0,1l-0.5-0.2c-1.1-0.3-2,0-2.5,0.6C3.1,10.8,4.3,10.1,5.6,10.5z"/>
							<path class="st0" d="M5.6,8.2l0.3,0.1l0,1L5.4,9.1C4.4,8.8,3.4,9,3,9.7C3.1,8.4,4.3,7.7,5.6,8.2z"/>
						</g>
					</g>
				</g>
				<g>
					<g>
						<g>
							<path class="st0" d="M14.6,21.4l-9.2-2.7c-1.1-0.3-2,0-2.5,0.6c0.2-1.3,1.3-2,2.7-1.6l9,2.7V21.4z"/>
							<path class="st0" d="M5.6,25.1l9,2.7v1L5.4,26c-1.1-0.3-2,0-2.5,0.6C3.1,25.4,4.3,24.7,5.6,25.1z"/>
							<path class="st0" d="M5.6,29.8l9,2.7v1l-9.2-2.7c-1.1-0.3-2,0-2.5,0.6C3.1,30.1,4.3,29.4,5.6,29.8z"/>
							<g>
								<polygon class="st0" points="12.8,24.8 14.6,25.3 14.6,26.3 12.8,25.7 								"/>
								<path class="st0" d="M5.6,22.6l6.2,1.8v1l-6.4-1.9c-1.1-0.3-2,0-2.5,0.6C3.1,22.9,4.3,22.2,5.6,22.6z"/>
							</g>
							<g>
								<polygon class="st0" points="9.3,21.3 14.6,22.9 14.6,23.8 9.3,22.3 								"/>
								<path class="st0" d="M5.6,20.2L8.3,21l0,1l-2.9-0.9c-1.1-0.3-2,0-2.5,0.6C3.1,20.5,4.3,19.8,5.6,20.2z"/>
							</g>
							<g>
								<polygon class="st0" points="9.3,28.5 14.6,30.1 14.6,31.1 9.3,29.5 								"/>
								<path class="st0" d="M5.6,27.4l2.7,0.8l0,1l-2.9-0.9c-1.1-0.3-2,0-2.5,0.6C3.1,27.7,4.3,27,5.6,27.4z"/>
							</g>
							<g>
								<polygon class="st0" points="12.8,34.2 14.6,34.8 14.6,35.8 12.8,35.2 								"/>
								<path class="st0" d="M5.6,32.1l6.2,1.8v1L5.4,33c-1.1-0.3-2,0-2.5,0.6C3.1,32.4,4.3,31.7,5.6,32.1z"/>
							</g>
							<path class="st0" d="M5.6,17.7l0.3,0.1l0,1l-0.5-0.2c-1.1-0.3-2,0-2.5,0.6C3.1,18,4.3,17.3,5.6,17.7z"/>
							<path class="st0" d="M5.6,32.1l0.3,0.1l0,1L5.4,33c-1.1-0.3-2,0-2.5,0.6C3.1,32.4,4.3,31.7,5.6,32.1z"/>
							<path class="st0" d="M5.6,22.6l0.3,0.1l0,1l-0.5-0.2c-1.1-0.3-2,0-2.5,0.6C3.1,22.9,4.3,22.2,5.6,22.6z"/>
							<path class="st0" d="M5.6,20.2l0.3,0.1l0,1l-0.5-0.2c-1.1-0.3-2,0-2.5,0.6C3.1,20.5,4.3,19.8,5.6,20.2z"/>
							<path class="st0" d="M5.6,29.8l0.3,0.1l0,1l-0.5-0.2c-1.1-0.3-2,0-2.5,0.6C3.1,30.1,4.3,29.4,5.6,29.8z"/>
							<path class="st0" d="M5.6,27.4l0.3,0.1v1l-0.5-0.2c-1.1-0.3-2,0-2.5,0.6C3.1,27.7,4.3,27,5.6,27.4z"/>
							<path class="st0" d="M5.6,25.1l0.3,0.1l0,1L5.4,26c-1.1-0.3-2,0-2.5,0.6C3.1,25.4,4.3,24.7,5.6,25.1z"/>
						</g>
					</g>
				</g>
				<g>
					<g>
						<g>
							<path class="st0" d="M14.6,38.2l-9.2-2.7c-1.1-0.3-2,0-2.5,0.6c0.2-1.3,1.3-2,2.7-1.6l9,2.7L14.6,38.2z"/>
							<path class="st0" d="M5.6,42l9,2.7v1l-9.2-2.7c-1.1-0.3-2,0-2.5,0.6C3.1,42.2,4.3,41.6,5.6,42z"/>
							<g>
								<polygon class="st0" points="12.8,41.6 14.6,42.2 14.6,43.1 12.8,42.6 								"/>
								<path class="st0" d="M5.6,39.5l6.2,1.8l0,1l-6.4-1.9c-1.1-0.3-2,0-2.5,0.6C3.1,39.8,4.3,39.1,5.6,39.5z"/>
							</g>
							<g>
								<polygon class="st0" points="9.3,38.1 14.6,39.7 14.6,40.7 9.3,39.1 								"/>
								<path class="st0" d="M5.6,37l2.7,0.8v1L5.4,38c-1.1-0.3-2,0-2.5,0.6C3.1,37.3,4.3,36.6,5.6,37z"/>
							</g>
							<g>
								<polygon class="st0" points="9.3,45.4 14.6,47 14.6,47.9 9.3,46.4 								"/>
								<path class="st0" d="M5.6,44.3l2.7,0.8v1l-2.9-0.9c-1.1-0.3-2,0-2.5,0.6C3.1,44.6,4.3,43.9,5.6,44.3z"/>
							</g>
							<path class="st0" d="M5.6,34.6l0.3,0.1l0,1l-0.5-0.2c-1.1-0.3-2,0-2.5,0.6C3.1,34.9,4.3,34.2,5.6,34.6z"/>
							<path class="st0" d="M5.6,39.5l0.3,0.1v1l-0.5-0.2c-1.1-0.3-2,0-2.5,0.6C3.1,39.8,4.3,39.1,5.6,39.5z"/>
							<path class="st0" d="M5.6,37l0.3,0.1l0,1L5.4,38c-1.1-0.3-2,0-2.5,0.6C3.1,37.3,4.3,36.6,5.6,37z"/>
							<path class="st0" d="M5.6,44.3l0.3,0.1l0,1l-0.5-0.2c-1.1-0.3-2,0-2.5,0.6C3.1,44.6,4.3,43.9,5.6,44.3z"/>
							<path class="st0" d="M5.6,42L5.9,42v1l-0.5-0.2c-1.1-0.3-2,0-2.5,0.6C3.1,42.2,4.3,41.6,5.6,42z"/>
						</g>
					</g>
				</g>
			</g>
			<g>
				<polygon class="st0" points="15.5,24.4 15.5,25.4 23.9,29.1 23.9,28.1 				"/>
				<polygon class="st0" points="15.5,22.1 15.5,23.1 23.9,26.7 23.9,25.8 				"/>
				<polygon class="st0" points="15.5,19.6 15.5,20.6 23.9,24.3 23.9,23.3 				"/>
			</g>
			<g>
				<g>
					<path class="st0" d="M33.4,15.7l-9-1.5v1l9.2,1.6c1.1,0.2,2,0.9,2.4,1.8C35.9,17.2,34.7,16,33.4,15.7z"/>
					<path class="st0" d="M33.4,6.4l-9-1.5v1l9.2,1.6c1.1,0.2,2,0.9,2.4,1.8C35.9,7.8,34.7,6.6,33.4,6.4z"/>
					<path class="st0" d="M33.4,11.1l-9-1.5l0,1l9.2,1.6c1.1,0.2,2,0.9,2.4,1.8C35.9,12.5,34.7,11.3,33.4,11.1z"/>
					<g>
						<polygon class="st0" points="28.7,3.1 24.4,2.4 24.4,3.4 28.7,4.1 						"/>
						<path class="st0" d="M33.4,3.9l-3.7-0.6v1L33.6,5c1.1,0.2,2,0.9,2.4,1.8C35.9,5.4,34.7,4.2,33.4,3.9z"/>
					</g>
					<g>
						<polygon class="st0" points="25.7,7.4 24.4,7.2 24.4,8.2 25.7,8.4 						"/>
						<path class="st0" d="M33.4,8.7l-6.7-1.2l0,1l6.9,1.2c1.1,0.2,2,0.9,2.4,1.8C35.9,10.2,34.7,9,33.4,8.7z"/>
					</g>
					<g>
						<polygon class="st0" points="30.2,12.8 24.4,11.8 24.4,12.8 30.2,13.8 						"/>
						<path class="st0" d="M33.4,13.4L31.2,13l0,1l2.4,0.4c1.1,0.2,2,0.9,2.4,1.8C35.9,14.8,34.7,13.6,33.4,13.4z"/>
					</g>
					<g>
						<polygon class="st0" points="25.7,16.7 24.4,16.5 24.4,17.5 25.7,17.7 						"/>
						<path class="st0" d="M33.4,18.1l-6.7-1.2v1l6.9,1.2c1.1,0.2,2,0.9,2.4,1.8C35.9,19.5,34.7,18.3,33.4,18.1z"/>
					</g>
					<path class="st0" d="M33.4,18.1L33.1,18v1l0.5,0.1c1.1,0.2,2,0.9,2.4,1.8C35.9,19.5,34.7,18.3,33.4,18.1z"/>
					<path class="st0" d="M33.4,13.4l-0.3-0.1l0,1l0.5,0.1c1.1,0.2,2,0.9,2.4,1.8C35.9,14.8,34.7,13.6,33.4,13.4z"/>
					<path class="st0" d="M33.4,15.7l-0.3-0.1v1l0.5,0.1c1.1,0.2,2,0.9,2.4,1.8C35.9,17.2,34.7,16,33.4,15.7z"/>
					<path class="st0" d="M33.4,3.9l-0.3-0.1v1L33.6,5c1.1,0.2,2,0.9,2.4,1.8C35.9,5.4,34.7,4.2,33.4,3.9z"/>
					<path class="st0" d="M33.4,11.1L33.1,11v1l0.5,0.1c1.1,0.2,2,0.9,2.4,1.8C35.9,12.5,34.7,11.3,33.4,11.1z"/>
					<path class="st0" d="M33.4,8.7l-0.3-0.1v1l0.5,0.1c1.1,0.2,2,0.9,2.4,1.8C35.9,10.2,34.7,9,33.4,8.7z"/>
					<path class="st0" d="M33.4,6.4l-0.3-0.1l0,1l0.5,0.1c1.1,0.2,2,0.9,2.4,1.8C35.9,7.8,34.7,6.6,33.4,6.4z"/>
				</g>
				<g>
					<g>
						<path class="st0" d="M33.4,41.7l-6.2-1.1l0,1l6.4,1.1c1.1,0.2,2,0.9,2.4,1.8C35.9,43.1,34.7,41.9,33.4,41.7z"/>
						<polygon class="st0" points="26.2,40.5 24.4,40.1 24.4,41.1 26.2,41.4 						"/>
					</g>
					<path class="st0" d="M33.4,41.7l-0.3-0.1l0,1l0.5,0.1c1.1,0.2,2,0.9,2.4,1.8C35.9,43.1,34.7,41.9,33.4,41.7z"/>
				</g>
				<g>
					<path class="st0" d="M33.4,36.9l-9-1.5v1l9.2,1.6c1.1,0.2,2,0.9,2.4,1.8C35.9,38.3,34.7,37.1,33.4,36.9z"/>
					<path class="st0" d="M33.4,22.6l-9-1.5v1l9.2,1.6c1.1,0.2,2,0.9,2.4,1.8C35.9,24.1,34.7,22.9,33.4,22.6z"/>
					<path class="st0" d="M33.4,27.5l-9-1.5v1l9.2,1.6c1.1,0.2,2,0.9,2.4,1.8C35.9,29,34.7,27.8,33.4,27.5z"/>
					<g>
						<polygon class="st0" points="28.7,24.3 24.4,23.5 24.4,24.5 28.7,25.2 						"/>
						<polygon class="st0" points="28.7,24.3 24.4,23.5 24.4,24.5 28.7,25.2 						"/>
						<path class="st0" d="M33.4,25.1l-3.7-0.6v1l3.9,0.7c1.1,0.2,2,0.9,2.4,1.8C35.9,26.5,34.7,25.3,33.4,25.1z"/>
					</g>
					<g>
						<polygon class="st0" points="25.7,28.5 24.4,28.3 24.4,29.3 25.7,29.5 						"/>
						<path class="st0" d="M33.4,29.9l-6.7-1.2l0,1l6.9,1.2c1.1,0.2,2,0.9,2.4,1.8C35.9,31.3,34.7,30.1,33.4,29.9z"/>
					</g>
					<g>
						<polygon class="st0" points="25.7,37.9 24.4,37.6 24.4,38.6 25.7,38.8 						"/>
						<path class="st0" d="M33.4,39.2L26.7,38v1l6.9,1.2c1.1,0.2,2,0.9,2.4,1.8C35.9,40.6,34.7,39.4,33.4,39.2z"/>
					</g>
					<g>
						<path class="st0" d="M33.4,20.2l-6.2-1.1l0,1l6.4,1.1c1.1,0.2,2,0.9,2.4,1.8C35.9,21.6,34.7,20.4,33.4,20.2z"/>
						<polygon class="st0" points="26.2,18.9 24.4,18.6 24.4,19.6 26.2,19.9 						"/>
					</g>
					<g>
						<path class="st0" d="M33.4,32.1L27.2,31l0,1l6.4,1.1c1.1,0.2,2,0.9,2.4,1.8C35.9,33.5,34.7,32.3,33.4,32.1z"/>
						<polygon class="st0" points="26.2,30.9 24.4,30.5 24.4,31.5 26.2,31.8 						"/>
					</g>
					<path class="st0" d="M33.4,39.2l-0.3-0.1v1l0.5,0.1c1.1,0.2,2,0.9,2.4,1.8C35.9,40.6,34.7,39.4,33.4,39.2z"/>
					<path class="st0" d="M33.4,20.2l-0.3-0.1v1l0.5,0.1c1.1,0.2,2,0.9,2.4,1.8C35.9,21.6,34.7,20.4,33.4,20.2z"/>
					<path class="st0" d="M33.4,36.9l-0.3-0.1v1l0.5,0.1c1.1,0.2,2,0.9,2.4,1.8C35.9,38.3,34.7,37.1,33.4,36.9z"/>
					<path class="st0" d="M33.4,25.1L33.1,25v1l0.5,0.1c1.1,0.2,2,0.9,2.4,1.8C35.9,26.5,34.7,25.3,33.4,25.1z"/>
					<path class="st0" d="M33.4,22.6l-0.3-0.1v1l0.5,0.1c1.1,0.2,2,0.9,2.4,1.8C35.9,24.1,34.7,22.9,33.4,22.6z"/>
					<path class="st0" d="M33.4,29.9l-0.3-0.1v1l0.5,0.1c1.1,0.2,2,0.9,2.4,1.8C35.9,31.3,34.7,30.1,33.4,29.9z"/>
					<path class="st0" d="M33.4,27.5l-0.3-0.1l0,1l0.5,0.1c1.1,0.2,2,0.9,2.4,1.8C35.9,29,34.7,27.8,33.4,27.5z"/>
				</g>
				<path class="st0" d="M33.4,34.5l-9-1.5v1l9.2,1.6c1.1,0.2,2,0.9,2.4,1.8C35.9,36,34.7,34.8,33.4,34.5z"/>
			</g>
		</g>
	</g>
</g>
</svg>
